<?xml version="1.0" encoding="UTF-8" standalone="no"?>
<svg
   width="513px"
   height="512px"
   viewBox="0 0 513 512"
   version="1.1"
   id="svg3028"
   sodipodi:docname="home-dark.svg"
   xml:space="preserve"
   inkscape:version="1.2.1 (9c6d41e410, 2022-07-14)"
   xmlns:inkscape="http://www.inkscape.org/namespaces/inkscape"
   xmlns:sodipodi="http://sodipodi.sourceforge.net/DTD/sodipodi-0.dtd"
   xmlns="http://www.w3.org/2000/svg"
   xmlns:svg="http://www.w3.org/2000/svg"
   xmlns:rdf="http://www.w3.org/1999/02/22-rdf-syntax-ns#"
   xmlns:cc="http://creativecommons.org/ns#"
   xmlns:dc="http://purl.org/dc/elements/1.1/"><defs
     id="defs3032" /><sodipodi:namedview
     id="namedview3030"
     pagecolor="#ffffff"
     bordercolor="#000000"
     borderopacity="0.25"
     inkscape:showpageshadow="2"
     inkscape:pageopacity="0.0"
     inkscape:pagecheckerboard="0"
     inkscape:deskcolor="#d1d1d1"
     showgrid="false"
     inkscape:zoom="2.0058594"
     inkscape:cx="256.99708"
     inkscape:cy="256.24927"
     inkscape:window-width="3840"
     inkscape:window-height="2036"
     inkscape:window-x="1878"
     inkscape:window-y="-12"
     inkscape:window-maximized="1"
     inkscape:current-layer="svg3028" /><title
     id="title3020">linkedin-dark</title><path
     d="m 263.18195,40.716296 a 16.757437,16.61978 0 0 0 -9.81784,3.57031 L 94.59888,168.33823 C 74.448439,184.08815 62.658229,208.15499 62.658229,233.59899 V 445.0905 c 0,15.1069 12.694239,27.69686 27.926268,27.69686 H 202.28957 c 15.23203,0 27.92627,-12.58996 27.92627,-27.69686 V 334.30304 c 0,-3.26871 2.28944,-5.53937 5.58526,-5.53937 h 55.85253 c 3.29579,0 5.58526,2.27066 5.58526,5.53937 V 445.0905 c 0,15.1069 12.69424,27.69686 27.92627,27.69686 h 111.70507 c 15.23203,0 27.92627,-12.58996 27.92627,-27.69686 V 233.59899 c 0,-25.444 -11.79021,-49.51084 -31.94065,-65.26076 L 274.09062,44.286606 a 16.757437,16.61978 0 0 0 -10.90867,-3.57031 z m 0.54541,37.780257 148.40194,115.958977 c 12.10995,9.46534 19.15567,23.86199 19.15567,39.14346 V 439.55112 H 330.75041 V 334.30304 c 0,-21.21528 -17.70578,-38.7756 -39.09678,-38.7756 H 235.8011 c -21.39104,0 -39.09678,17.56032 -39.09678,38.7756 V 439.55112 H 96.169751 V 233.59899 c 0,-15.28147 7.045689,-29.67812 19.155669,-39.14346 z"
     id="path6159"
     style="stroke-width:11.1245;fill:#f4eeff;fill-opacity:1" /><metadata
     id="metadata9771"><rdf:RDF><cc:Work
         rdf:about=""><dc:title>linkedin-dark</dc:title></cc:Work></rdf:RDF></metadata></svg>
